# xmcd
#
# Track frame offsets:
#	150
#	18328
#	35475
#	58219
#	80895
#	96766
#	117017
#	140611
#	161592
#	183554
#	196321
#	217450
#	243971
#
# Disc length: 3801 seconds
#
# Revision: 2
# Processed by: cddbd v1.4PL0 Copyright (c) Steve Scherf et al.
# Submitted via: audiograbber 1.82.02
#
DISCID=bf0ed70d
DTITLE=Fatman Arne - A Fat Piece Of Blues
DYEAR=2000
DGENRE=Soul
TTITLE0=Too Much
TTITLE1=Dust My Broom
TTITLE2=Let's Go, Get Stoned
TTITLE3=I'm Burnin Babe
TTITLE4=Play Dirty
TTITLE5=The Right Time
TTITLE6=Dance The Night Away (Live)
TTITLE7=The Blues Don't Bother Me (Live)
TTITLE8=Get Down (Live)
TTITLE9=Talk Is Cheap (Live)
TTITLE10=Looking Back (Live)
TTITLE11=Fatman's On The Road (Live)
TTITLE12=Just About Enough (Live)
EXTD=
EXTT0=
EXTT1=
EXTT2=
EXTT3=
EXTT4=
EXTT5=
EXTT6=
EXTT7=
EXTT8=
EXTT9=
EXTT10=
EXTT11=
EXTT12=
PLAYORDER=
